{"title":"Wonder Woman [BDrip x264 1080p - Ac3 Eng - Softsub Ita Eng]","uid":6149466,"size":3521084390,"categoryP":"video","categoryS":"hd___movies","magnet":"?xt=urn:btih:a9cec0a8d5f0fec06241314a108f45f94d86246e&amp;dn=Wonder+Woman+%5BBDrip+x264+1080p+-+Ac3+Eng+-+Softsub+Ita+Eng%5D&amp;tr=udp%3A%2F%2Ftracker.openbittorrent.com%3A80&amp;tr=udp%3A%2F%2Fopen.demonii.com%3A1337&amp;tr=udp%3A%2F%2Ftracker.coppersurfer.tk%3A6969&amp;tr=udp%3A%2F%2Fexodus.desync.com%3A6969","seeders":0,"leechers":3,"uploader":"Collerom","files":1,"time":1296826766,"description":" &lt;a href=&quot;http://img694.imageshack.us/img694/8136/wonderwomanposter.jpg&quot; rel=&quot;nofollow&quot; target=&quot;_NEW&quot;&gt;http://img694.imageshack.us/img694/8136/wonderwomanposter.jpg&lt;/a&gt;\n\n\nWonder Woman is a 2009  direct-to-video animated film focusing on the superheroine Wonder Woman. The plot of the film is loosely based on George PÃƒÂ©rez' reboot of the character, specifically the &quot;Gods and Mortals&quot; arc that started the character's second volume in 1987.[4]  It is the fourth in the line of DC Universe Animated Original Movies released by Warner Premiere and Warner Bros. Animation.\n\nThe film is directed by Lauren Montgomery, who directed the second act of Superman: Doomsday and did storyboard work for Justice League: The New Frontier, and written by Gail Simone and Michael Jelenic. As with all previous releases in this line of films, it is produced by acclaimed DC Comics animation veteran Bruce Timm.\n\n &lt;a href=&quot;\nhttp://img16.imageshack.us/i/wonderwoman20091080pbluh.png/&quot; rel=&quot;nofollow&quot; target=&quot;_NEW&quot;&gt;\nhttp://img16.imageshack.us/i/wonderwoman20091080pbluh.png/&lt;/a&gt; &lt;a href=&quot;\nhttp://img11.imageshack.us/i/wonderwoman20091080pblu.png/&quot; rel=&quot;nofollow&quot; target=&quot;_NEW&quot;&gt;\nhttp://img11.imageshack.us/i/wonderwoman20091080pblu.png/&lt;/a&gt; &lt;a href=&quot;\nhttp://img695.imageshack.us/i/wonderwoman20091080pblu.png/&quot; rel=&quot;nofollow&quot; target=&quot;_NEW&quot;&gt;\nhttp://img695.imageshack.us/i/wonderwoman20091080pblu.png/&lt;/a&gt; &lt;a href=&quot;\nhttp://img204.imageshack.us/i/wonderwoman20091080pblu.png/&quot; rel=&quot;nofollow&quot; target=&quot;_NEW&quot;&gt;\nhttp://img204.imageshack.us/i/wonderwoman20091080pblu.png/&lt;/a&gt; &lt;a href=&quot;\nhttp://img211.imageshack.us/i/wonderwoman20091080pblu.png/&quot; rel=&quot;nofollow&quot; target=&quot;_NEW&quot;&gt;\nhttp://img211.imageshack.us/i/wonderwoman20091080pblu.png/&lt;/a&gt;\n\n\nDirected by \tLauren Montgomery\nProduced by \tBruce Timm\nGregory Noveck\nBobbie Page\nSam Register\nSander Schwartz\nWritten by \tGail Simone\nMichael Jelenic\nStarring \tKeri Russell\nNathan Fillion\nMusic by \tChristopher Drake\nStudio \tWarner Bros. Animation\nWarner Premiere\nDC Comics\nDistributed by \tWarner Home Video\nRelease date(s) \tMarch 3, 2009\nRunning time \t75 minutes\nLanguage \tEnglish\n\n\nComplete name                    : Wonder Woman 1080p.mkv\nFormat                           : Matroska\nFile size                        : 3.28 GiB\nDuration                         : 1h 13mn\nOverall bit rate                 : 6 373 Kbps\nEncoded date                     : UTC 2011-02-03 11:36:53\nWriting application              : mkvmerge v4.3.0 ('Escape from the Island') built on Sep  5 2010 10:30:51\nWriting library                  : libebml v1.0.0 + libmatroska v1.0.0\n\nVideo\nID                               : 1\nFormat                           : AVC\nFormat/Info                      : Advanced Video Codec\nFormat profile                   : &lt;a class=&quot;__cf_email__&quot; href=&quot;/cdn-cgi/l/email-protection&quot; data-cfemail=&quot;eaa2838d82aaa6dec4db&quot;&gt;[email&amp;#160;protected]&lt;/a&gt;&lt;script cf-hash='f9e31' type=&quot;text/javascript&quot;&gt;\n/* &lt;![CDATA[ */!function(){try{var t=&quot;currentScript&quot;in document?document.currentScript:function(){for(var t=document.getElementsByTagName(&quot;script&quot;),e=t.length;e--;)if(t[e].getAttribute(&quot;cf-hash&quot;))return t[e]}();if(t&amp;&amp;t.previousSibling){var e,r,n,i,c=t.previousSibling,a=c.getAttribute(&quot;data-cfemail&quot;);if(a){for(e=&quot;&quot;,r=parseInt(a.substr(0,2),16),n=2;a.length-n;n+=2)i=parseInt(a.substr(n,2),16)^r,e+=String.fromCharCode(i);e=document.createTextNode(e),c.parentNode.replaceChild(e,c)}}}catch(u){}}();/* ]]&gt; */&lt;/script&gt;\nFormat settings, CABAC           : Yes\nFormat settings, ReFrames        : 4 frames\nMuxing mode                      : Header stripping\nCodec ID                         : V_MPEG4/ISO/AVC\nDuration                         : 1h 13mn\nBit rate                         : 5 730 Kbps\nWidth                            : 1 920 pixels\nHeight                           : 1 080 pixels\nDisplay aspect ratio             : 16:9\nFrame rate                       : 23.976 fps\nColor space                      : YUV\nChroma subsampling               : 4:2:0\nBit depth                        : 8 bits\nScan type                        : Progressive\nBits/(Pixel*Frame)               : 0.115\nStream size                      : 2.88 GiB (88%)\nAudio\nID                               : 2\nFormat                           : AC-3\nFormat/Info                      : Audio Coding 3\nMode extension                   : CM (complete main)\nMuxing mode                      : Header stripping\nCodec ID                         : A_AC3\nDuration                         : 1h 13mn\nBit rate mode                    : Constant\nBit rate                         : 640 Kbps\nChannel(s)                       : 6 channels\nChannel positions                : Front: L C R, Side: L R, LFE\nSampling rate                    : 48.0 KHz\nBit depth                        : 16 bits\nStream size                      : 337 MiB (10%)\nLanguage                         : English\n\nText #1\nID                               : 3\nFormat                           : UTF-8\nCodec ID                         : S_TEXT/UTF8\nCodec ID/Info                    : UTF-8 Plain Text\nLanguage                         : Italian\n\nText #2\nID                               : 4\nFormat                           : UTF-8\nCodec ID                         : S_TEXT/UTF8\nCodec ID/Info                    : UTF-8 Plain Text\nLanguage                         : English","torrent":{"xt":"urn:btih:a9cec0a8d5f0fec06241314a108f45f94d86246e","amp;dn":"Wonder+Woman+%5BBDrip+x264+1080p+-+Ac3+Eng+-+Softsub+Ita+Eng%5D","amp;tr":["udp%3A%2F%2Ftracker.openbittorrent.com%3A80","udp%3A%2F%2Fopen.demonii.com%3A1337","udp%3A%2F%2Ftracker.coppersurfer.tk%3A6969","udp%3A%2F%2Fexodus.desync.com%3A6969"],"infoHash":"a9cec0a8d5f0fec06241314a108f45f94d86246e","infoHashBuffer":{"type":"Buffer","data":[169,206,192,168,213,240,254,192,98,65,49,74,16,143,69,249,77,134,36,110]},"announce":[],"urlList":[]}}